<svg width="145" height="50" viewBox="0 0 145 50" fill="none" xmlns="http://www.w3.org/2000/svg">
<path d="M24.5 50C38.031 50 49 39.031 49 25.5C49 11.969 38.031 1 24.5 1C10.969 1 0 11.969 0 25.5C0 39.031 10.969 50 24.5 50Z" fill="#FDC800"/>
<path d="M36.4833 13.0054L21.4772 14.2738C20.6595 14.3429 19.8758 14.6607 19.2414 15.1804L7.58946 24.7217C6.60614 25.5268 7.21541 27.0293 8.48174 26.9222L11.0979 26.701C10.8462 27.5444 10.8476 28.4481 11.1614 29.3111C10.8093 29.7641 10.6802 30.3762 10.9129 30.9501C11.1239 31.4704 11.5729 31.7981 12.0772 31.9196L13.1057 37.959C13.1952 38.4842 13.7439 38.7945 14.2327 38.5963L16.9138 37.5091C17.4031 37.3107 17.5807 36.7059 17.2791 36.2667L13.8108 31.2166C14.0882 30.7782 14.1821 30.2303 13.9711 29.71C13.7447 29.1516 13.246 28.8098 12.6969 28.7166C12.4393 27.9769 12.5463 27.1871 12.9669 26.5434L23.488 25.6542C23.9753 25.6129 24.8737 25.4436 25.7238 24.7476L37.3757 15.2063C38.3593 14.4005 37.7503 12.8985 36.4833 13.0054ZM26.7717 26.042C25.5798 27.0176 24.3235 27.255 23.6375 27.3128L15.836 27.9725L17.3791 33.7235C18.0709 35.4297 22.7391 35.147 27.8061 33.0923C32.8731 31.0377 36.4198 27.9893 35.728 26.2831L32.8296 21.0811L26.7717 26.042Z" fill="#002147"/>
<path d="M70.7363 27.0849H62.2988V32.7978H72.2012V36.3281H57.9043V15H72.1719V18.5595H62.2988V23.6426H70.7363V27.0849ZM80.3521 36.3281H75.9576V15H80.3521V36.3281ZM92.0187 27.7734L89.7336 30.2343V36.3281H85.3391V15H89.7336V24.6679L91.6672 22.0166L97.1018 15H102.507L94.9338 24.4775L102.727 36.3281H97.4973L92.0187 27.7734ZM113.178 28.5205H109.677V36.3281H105.282V15H113.207C115.726 15 117.67 15.5615 119.037 16.6846C120.404 17.8076 121.088 19.3945 121.088 21.4453C121.088 22.9004 120.77 24.1162 120.136 25.0927C119.511 26.0595 118.558 26.831 117.279 27.4072L121.893 36.123V36.3281H117.177L113.178 28.5205ZM109.677 24.9609H113.221C114.325 24.9609 115.179 24.6826 115.785 24.126C116.39 23.5595 116.693 22.7832 116.693 21.7969C116.693 20.791 116.405 20 115.829 19.4238C115.263 18.8476 114.388 18.5595 113.207 18.5595H109.677V24.9609ZM137.383 31.9336H129.678L128.213 36.3281H123.54L131.48 15H135.552L143.536 36.3281H138.863L137.383 31.9336ZM130.865 28.374H136.197L133.516 20.3906L130.865 28.374Z" fill="white"/>
</svg>
