<svg width="145" height="50" viewBox="0 0 145 50" fill="none" xmlns="http://www.w3.org/2000/svg">
<path d="M24.5 50C38.031 50 49 39.031 49 25.5C49 11.969 38.031 1 24.5 1C10.969 1 0 11.969 0 25.5C0 39.031 10.969 50 24.5 50Z" fill="#002147"/>
<path d="M36.4833 13.247L21.4772 14.5154C20.6595 14.5845 19.8758 14.9023 19.2414 15.422L7.58945 24.9633C6.60613 25.7684 7.2154 27.2709 8.48173 27.1638L11.0979 26.9426C10.8462 27.786 10.8476 28.6897 11.1614 29.5527C10.8093 30.0057 10.6802 30.6178 10.9129 31.1917C11.1239 31.712 11.5729 32.0397 12.0772 32.1612L13.1057 38.2006C13.1952 38.7258 13.7439 39.0361 14.2327 38.8379L16.9138 37.7507C17.4031 37.5523 17.5807 36.9475 17.2791 36.5083L13.8108 31.4582C14.0882 31.0198 14.1821 30.4719 13.9711 29.9516C13.7447 29.3932 13.246 29.0514 12.6969 28.9582C12.4393 28.2185 12.5463 27.4287 12.9669 26.785L23.488 25.8958C23.9753 25.8545 24.8737 25.6852 25.7238 24.9892L37.3757 15.4479C38.3593 14.6421 37.7503 13.1401 36.4833 13.247ZM26.7717 26.2836C25.5798 27.2592 24.3235 27.4966 23.6375 27.5544L15.836 28.2141L17.3791 33.9651C18.0709 35.6713 22.7391 35.3886 27.8061 33.3339C32.8731 31.2793 36.4198 28.2309 35.728 26.5247L32.8296 21.3227L26.7717 26.2836Z" fill="#FDC800"/>
<path d="M70.7363 18.7568H62.2988V24.4697H72.2012V28H57.9043V6.67188H72.1719V10.2314H62.2988V15.3145H70.7363V18.7568ZM80.3521 28H75.9576V6.67188H80.3521V28ZM92.0187 19.4453L89.7336 21.9062V28H85.3391V6.67188H89.7336V16.3398L91.6672 13.6885L97.1018 6.67188H102.507L94.9338 16.1494L102.727 28H97.4973L92.0187 19.4453ZM113.178 20.1924H109.677V28H105.282V6.67188H113.207C115.726 6.67188 117.67 7.2334 119.037 8.35645C120.404 9.47949 121.088 11.0664 121.088 13.1172C121.088 14.5723 120.77 15.7881 120.136 16.7646C119.511 17.7314 118.558 18.5029 117.279 19.0791L121.893 27.7949V28H117.177L113.178 20.1924ZM109.677 16.6328H113.221C114.325 16.6328 115.179 16.3545 115.785 15.7979C116.39 15.2314 116.693 14.4551 116.693 13.4688C116.693 12.4629 116.405 11.6719 115.829 11.0957C115.263 10.5195 114.388 10.2314 113.207 10.2314H109.677V16.6328ZM137.383 23.6055H129.678L128.213 28H123.54L131.48 6.67188H135.552L143.536 28H138.863L137.383 23.6055ZM130.865 20.0459H136.197L133.516 12.0625L130.865 20.0459Z" fill="#002147"/>
<path d="M62.8125 39.0566H59.1152V42.0801H63.4102V43H57.9902V34.4688H63.3516V35.3945H59.1152V38.1367H62.8125V39.0566ZM67.6905 43V34.4688H70.0988C70.8409 34.4688 71.4972 34.6328 72.0675 34.9609C72.6378 35.2891 73.0773 35.7559 73.3859 36.3613C73.6984 36.9668 73.8566 37.6621 73.8605 38.4473V38.9922C73.8605 39.7969 73.7042 40.502 73.3917 41.1074C73.0831 41.7129 72.6398 42.1777 72.0616 42.502C71.4874 42.8262 70.8175 42.9922 70.0519 43H67.6905ZM68.8155 35.3945V42.0801H69.9991C70.8663 42.0801 71.5402 41.8105 72.0206 41.2715C72.505 40.7324 72.7472 39.9648 72.7472 38.9688V38.4707C72.7472 37.502 72.5187 36.75 72.0616 36.2148C71.6085 35.6758 70.964 35.4023 70.128 35.3945H68.8155ZM84.4514 34.4688V40.2695C84.4475 41.0742 84.1936 41.7324 83.6897 42.2441C83.1897 42.7559 82.51 43.043 81.6506 43.1055L81.3518 43.1172C80.4182 43.1172 79.6741 42.8652 79.1194 42.3613C78.5647 41.8574 78.2834 41.1641 78.2756 40.2812V34.4688H79.3889V40.2461C79.3889 40.8633 79.5588 41.3438 79.8987 41.6875C80.2385 42.0273 80.7229 42.1973 81.3518 42.1973C81.9885 42.1973 82.4748 42.0273 82.8108 41.6875C83.1506 41.3477 83.3205 40.8691 83.3205 40.252V34.4688H84.4514ZM95.3822 40.293C95.2767 41.1953 94.9427 41.8926 94.3802 42.3848C93.8216 42.873 93.0775 43.1172 92.1478 43.1172C91.14 43.1172 90.3314 42.7559 89.722 42.0332C89.1166 41.3105 88.8138 40.3438 88.8138 39.1328V38.3125C88.8138 37.5195 88.9545 36.8223 89.2357 36.2207C89.5209 35.6191 89.9232 35.1582 90.4427 34.8379C90.9623 34.5137 91.5638 34.3516 92.2474 34.3516C93.1537 34.3516 93.8802 34.6055 94.4271 35.1133C94.974 35.6172 95.2923 36.3164 95.3822 37.2109H94.2513C94.1537 36.5312 93.9408 36.0391 93.6127 35.7344C93.2884 35.4297 92.8334 35.2773 92.2474 35.2773C91.5287 35.2773 90.9642 35.543 90.5541 36.0742C90.1478 36.6055 89.9447 37.3613 89.9447 38.3418V39.168C89.9447 40.0938 90.138 40.8301 90.5248 41.377C90.9115 41.9238 91.4525 42.1973 92.1478 42.1973C92.7728 42.1973 93.2513 42.0566 93.5834 41.7754C93.9193 41.4902 94.142 40.9961 94.2513 40.293H95.3822ZM104.514 40.7734H100.94L100.137 43H98.977L102.235 34.4688H103.219L106.483 43H105.329L104.514 40.7734ZM101.28 39.8477H104.18L102.727 35.8574L101.28 39.8477ZM115.644 35.3945H112.902V43H111.783V35.3945H109.046V34.4688H115.644V35.3945ZM120.997 43H119.872V34.4688H120.997V43ZM132.502 39.0098C132.502 39.8457 132.361 40.5762 132.08 41.2012C131.799 41.8223 131.4 42.2969 130.885 42.625C130.369 42.9531 129.767 43.1172 129.08 43.1172C128.408 43.1172 127.812 42.9531 127.293 42.625C126.773 42.293 126.369 41.8223 126.08 41.2129C125.795 40.5996 125.648 39.8906 125.64 39.0859V38.4707C125.64 37.6504 125.783 36.9258 126.068 36.2969C126.353 35.668 126.756 35.1875 127.275 34.8555C127.799 34.5195 128.396 34.3516 129.068 34.3516C129.752 34.3516 130.353 34.5176 130.873 34.8496C131.396 35.1777 131.799 35.6562 132.08 36.2852C132.361 36.9102 132.502 37.6387 132.502 38.4707V39.0098ZM131.383 38.459C131.383 37.4473 131.18 36.6719 130.773 36.1328C130.367 35.5898 129.799 35.3184 129.068 35.3184C128.357 35.3184 127.797 35.5898 127.387 36.1328C126.98 36.6719 126.771 37.4219 126.76 38.3828V39.0098C126.76 39.9902 126.965 40.7617 127.375 41.3242C127.789 41.8828 128.357 42.1621 129.08 42.1621C129.806 42.1621 130.369 41.8984 130.767 41.3711C131.166 40.8398 131.371 40.0801 131.383 39.0918V38.459ZM143.626 43H142.495L138.2 36.4258V43H137.069V34.4688H138.2L142.507 41.0723V34.4688H143.626V43Z" fill="#757575"/>
</svg>
