<svg width="144" height="49" viewBox="0 0 144 49" fill="none" xmlns="http://www.w3.org/2000/svg">
<path d="M24.5 49C38.031 49 49 38.031 49 24.5C49 10.969 38.031 0 24.5 0C10.969 0 0 10.969 0 24.5C0 38.031 10.969 49 24.5 49Z" fill="#002147"/>
<path d="M36.4833 12.0054L21.4772 13.2738C20.6595 13.3429 19.8758 13.6607 19.2414 14.1804L7.58945 23.7217C6.60613 24.5268 7.2154 26.0293 8.48173 25.9222L11.0979 25.701C10.8462 26.5444 10.8476 27.4481 11.1614 28.3111C10.8093 28.7641 10.6802 29.3762 10.9129 29.9501C11.1239 30.4704 11.5729 30.7981 12.0772 30.9196L13.1057 36.959C13.1952 37.4842 13.7439 37.7945 14.2327 37.5963L16.9138 36.5091C17.4031 36.3107 17.5807 35.7059 17.2791 35.2667L13.8108 30.2166C14.0882 29.7782 14.1821 29.2303 13.9711 28.71C13.7447 28.1516 13.246 27.8098 12.6969 27.7166C12.4393 26.9769 12.5463 26.1871 12.9669 25.5434L23.488 24.6542C23.9753 24.6129 24.8737 24.4436 25.7238 23.7476L37.3757 14.2063C38.3593 13.4005 37.7503 11.8985 36.4833 12.0054ZM26.7717 25.042C25.5798 26.0176 24.3235 26.255 23.6375 26.3128L15.836 26.9725L17.3791 32.7235C18.0709 34.4297 22.7391 34.147 27.8061 32.0923C32.8731 30.0377 36.4198 26.9893 35.728 25.2831L32.8296 20.0811L26.7717 25.042Z" fill="#FDC800"/>
<path d="M70.7363 26.0849H62.2988V31.7978H72.2012V35.3281H57.9043V14H72.1719V17.5595H62.2988V22.6426H70.7363V26.0849ZM80.3521 35.3281H75.9576V14H80.3521V35.3281ZM92.0187 26.7734L89.7336 29.2343V35.3281H85.3391V14H89.7336V23.6679L91.6672 21.0166L97.1018 14H102.507L94.9338 23.4775L102.727 35.3281H97.4973L92.0187 26.7734ZM113.178 27.5205H109.677V35.3281H105.282V14H113.207C115.726 14 117.67 14.5615 119.037 15.6846C120.404 16.8076 121.088 18.3945 121.088 20.4453C121.088 21.9004 120.77 23.1162 120.136 24.0927C119.511 25.0595 118.558 25.831 117.279 26.4072L121.893 35.123V35.3281H117.177L113.178 27.5205ZM109.677 23.9609H113.221C114.325 23.9609 115.179 23.6826 115.785 23.126C116.39 22.5595 116.693 21.7832 116.693 20.7969C116.693 19.791 116.405 19 115.829 18.4238C115.263 17.8476 114.388 17.5595 113.207 17.5595H109.677V23.9609ZM137.383 30.9336H129.678L128.213 35.3281H123.54L131.48 14H135.552L143.536 35.3281H138.863L137.383 30.9336ZM130.865 27.374H136.197L133.516 19.3906L130.865 27.374Z" fill="#002147"/>
</svg>
